<?xml version="1.0" encoding="utf-8"?>
<!-- Generator: Adobe Illustrator 16.0.0, SVG Export Plug-In . SVG Version: 6.00 Build 0)  -->
<!DOCTYPE svg PUBLIC "-//W3C//DTD SVG 1.1//EN" "http://www.w3.org/Graphics/SVG/1.1/DTD/svg11.dtd">
<svg version="1.1" id="Layer_1" xmlns="http://www.w3.org/2000/svg" xmlns:xlink="http://www.w3.org/1999/xlink" x="0px" y="0px"
	 width="64px" height="64px" viewBox="0 0 64 64" enable-background="new 0 0 64 64" xml:space="preserve">
<g>
	<path d="M8.95,20.95c-2.162,0-3.917,1.722-3.917,3.845l0,0v6.539v3.076v6.538l0,0c0,2.124,1.755,3.845,3.917,3.845
		c2.163,0,3.917-1.721,3.917-3.845h0.001V34.41v-3.076v-6.539h-0.001C12.867,22.672,11.113,20.95,8.95,20.95z"/>
	<path d="M58.967,24.795c0-2.123-1.756-3.845-3.918-3.845s-3.918,1.722-3.918,3.845l0,0v6.539v3.076v6.538l0,0
		c0,2.124,1.756,3.845,3.918,3.845s3.918-1.721,3.918-3.845l0,0V34.41v-3.076V24.795L58.967,24.795z"/>
	<path d="M14.467,21.623h-0.196v25.351c0,2.116,1.764,3.847,3.919,3.847h3.302v2.296v6.539l0,0c0.002,2.123,1.755,3.845,3.917,3.845
		c2.164,0,3.917-1.722,3.917-3.845l0,0v-6.539V50.82h5.346v2.296v6.539c0.002,2.124,1.756,3.845,3.918,3.845
		s3.916-1.722,3.918-3.845v-6.539V50.82h3.301c2.156,0,3.918-1.73,3.918-3.847V21.623h-0.063H14.467z"/>
	<path d="M49.693,20.276v-1.854c-0.049-0.526-0.131-1.045-0.24-1.555c-0.971-4.509-4.174-8.329-8.572-10.548l2.705-4.897
		c0.166-0.304,0.053-0.684-0.258-0.848c-0.307-0.164-0.693-0.051-0.863,0.252l-2.738,4.96C37.4,4.806,34.79,4.255,32.031,4.255
		c-2.779,0-5.406,0.559-7.748,1.556l-2.75-4.983c-0.167-0.304-0.555-0.416-0.863-0.252c-0.308,0.164-0.425,0.543-0.257,0.847
		l2.719,4.924c-4.19,2.132-7.292,5.72-8.39,9.973c-0.287,1.104-0.437,2.252-0.437,3.431c0,0.176,0.003,0.352,0.012,0.527H49.693
		L49.693,20.276z M40.063,10.854c0.92,0,1.666,0.732,1.666,1.634c0,0.903-0.746,1.635-1.666,1.635s-1.664-0.731-1.664-1.635
		C38.398,11.586,39.143,10.854,40.063,10.854z M23.936,10.854c0.92,0,1.665,0.732,1.665,1.634c0,0.903-0.745,1.635-1.665,1.635
		c-0.919,0-1.665-0.731-1.665-1.635C22.271,11.586,23.016,10.854,23.936,10.854z"/>
</g>
</svg>
