<?xml version="1.0" encoding="utf-8"?>
<!-- Generator: Adobe Illustrator 16.0.0, SVG Export Plug-In . SVG Version: 6.00 Build 0)  -->
<!DOCTYPE svg PUBLIC "-//W3C//DTD SVG 1.1//EN" "http://www.w3.org/Graphics/SVG/1.1/DTD/svg11.dtd">
<svg version="1.1" id="Layer_1" xmlns="http://www.w3.org/2000/svg" xmlns:xlink="http://www.w3.org/1999/xlink" x="0px" y="0px"
	 width="64px" height="64px" viewBox="0 0 64 64" enable-background="new 0 0 64 64" xml:space="preserve">
<g>
	<path clip-rule="evenodd"  d="M56.8,21.803c-3.192-3.983-7.67-6.288-11.895-6.288
		c-5.593,0-7.956,2.661-11.836,2.661c-3.998,0-7.038-2.657-11.874-2.657c-4.749,0-9.802,2.889-13.002,7.827
		c-4.507,6.948-3.743,20.017,3.563,31.152c2.613,3.981,6.103,8.46,10.667,8.502c4.055,0.038,5.203-2.591,10.704-2.621
		c5.505-0.031,6.544,2.649,10.6,2.613c4.563-0.043,8.246-5.001,10.857-8.985c1.873-2.853,2.567-4.294,4.021-7.52
		C48.042,42.491,46.344,27.54,56.8,21.803z"/>
	<path clip-rule="evenodd" d="M40.662,11.067C42.692,8.456,44.236,4.769,43.677,1
		c-3.317,0.229-7.199,2.344-9.467,5.099c-2.057,2.503-3.754,6.213-3.093,9.819C34.739,16.03,38.486,13.863,40.662,11.067z"/>
</g>
</svg>
