<?xml version="1.0" encoding="utf-8"?>
<!-- Generator: Adobe Illustrator 16.0.0, SVG Export Plug-In . SVG Version: 6.00 Build 0)  -->
<!DOCTYPE svg PUBLIC "-//W3C//DTD SVG 1.1//EN" "http://www.w3.org/Graphics/SVG/1.1/DTD/svg11.dtd">
<svg version="1.1" id="Layer_1" xmlns="http://www.w3.org/2000/svg" xmlns:xlink="http://www.w3.org/1999/xlink" x="0px" y="0px"
	 width="64px" height="64px" viewBox="0 0 64 64" enable-background="new 0 0 64 64" xml:space="preserve">
<path fill-rule="evenodd" clip-rule="evenodd" d="M2,54.051c0-14.72,0-29.362,0-44.102c19.987,0,39.934,0,60,0
	c0,14.687,0,29.355,0,44.102C41.988,54.051,22.041,54.051,2,54.051z M6.551,12.622c8.608,8.462,17.012,16.723,25.46,25.027
	c8.479-8.33,16.882-16.584,25.478-25.027C40.387,12.622,23.626,12.622,6.551,12.622z M57.884,51.382
	c-5.606-6.563-11.001-12.879-16.647-19.489c-3.063,3.291-6.008,6.454-8.99,9.658c-3.396-3.323-6.501-6.362-9.642-9.436
	c-5.53,6.481-10.914,12.79-16.439,19.267C23.518,51.382,40.543,51.382,57.884,51.382z M4.947,14.449
	c-0.128,0.093-0.257,0.187-0.385,0.28c0,11.363,0,22.726,0,34.432c5.5-6.428,10.804-12.625,15.783-18.442
	C15.171,25.252,10.06,19.851,4.947,14.449z M43.786,30.827c4.875,5.694,10.168,11.876,15.656,18.288c0-11.735,0-23.061,0-34.843
	C54.07,19.951,48.964,25.351,43.786,30.827z"/>
<g>
</g>
<g>
</g>
<g>
</g>
<g>
</g>
<g>
</g>
<g>
</g>
</svg>
