<?xml version="1.0" encoding="utf-8"?>
<!-- Generator: Adobe Illustrator 16.0.0, SVG Export Plug-In . SVG Version: 6.00 Build 0)  -->
<!DOCTYPE svg PUBLIC "-//W3C//DTD SVG 1.1//EN" "http://www.w3.org/Graphics/SVG/1.1/DTD/svg11.dtd">
<svg version="1.1" id="Layer_1" xmlns="http://www.w3.org/2000/svg" xmlns:xlink="http://www.w3.org/1999/xlink" x="0px" y="0px"
	 width="64px" height="64px" viewBox="0 0 64 64" enable-background="new 0 0 64 64" xml:space="preserve">
<path fill-rule="evenodd" clip-rule="evenodd" d="M17.989,27.306c1.271,2.539,1.29,5.04,0.211,7.715
	c9.965,4.994,19.934,9.988,29.939,15.003c1.182-1.735,2.658-2.923,4.651-3.459c3.75-1.01,7.713,1.212,8.893,5.044
	c1.146,3.719-0.92,7.848-4.533,9.068c-5.108,1.725-10.053-1.877-9.912-7.265c0.02-0.742-0.263-1.03-0.852-1.324
	c-9.593-4.785-19.182-9.578-28.75-14.409c-0.76-0.384-1.211-0.285-1.833,0.229c-2.915,2.414-6.918,2.582-10.031,0.486
	c-3.1-2.087-4.499-6.029-3.402-9.586c1.728-5.601,8.698-7.811,13.273-4.175c0.621,0.493,1.03,0.542,1.717,0.123
	c5.457-3.329,10.933-6.626,16.429-9.891c0.729-0.433,0.914-0.785,0.635-1.629c-1.793-5.405,2.442-10.751,8.13-10.325
	c3.59,0.269,6.768,3.232,7.169,6.685c0.456,3.937-1.696,7.475-5.267,8.659c-2.822,0.935-5.373,0.401-7.651-1.458
	c-0.439-0.358-0.747-0.453-1.274-0.133c-5.673,3.445-11.363,6.86-17.047,10.286C18.338,27.039,18.206,27.149,17.989,27.306z
	 M10.48,37.16c3.248,0.001,5.903-2.635,5.888-5.843c-0.016-3.183-2.757-5.89-5.918-5.845c-3.179,0.044-5.795,2.667-5.811,5.825
	C4.623,34.536,7.236,37.159,10.48,37.16z M41.902,16.044c2.885-0.006,5.294-2.412,5.281-5.274c-0.011-2.853-2.458-5.293-5.296-5.286
	c-2.87,0.008-5.265,2.421-5.263,5.301C36.628,13.676,39.012,16.051,41.902,16.044z M59.386,53.788
	c0.018-2.641-2.115-4.828-4.745-4.867c-2.57-0.037-4.801,2.194-4.801,4.806c0,2.643,2.166,4.81,4.796,4.799
	C57.213,58.515,59.367,56.366,59.386,53.788z"/>
<g>
</g>
<g>
</g>
<g>
</g>
<g>
</g>
<g>
</g>
<g>
</g>
</svg>
