<?xml version="1.0" encoding="utf-8"?>
<!-- Generator: Adobe Illustrator 16.0.0, SVG Export Plug-In . SVG Version: 6.00 Build 0)  -->
<!DOCTYPE svg PUBLIC "-//W3C//DTD SVG 1.1//EN" "http://www.w3.org/Graphics/SVG/1.1/DTD/svg11.dtd">
<svg version="1.1" id="Layer_1" xmlns="http://www.w3.org/2000/svg" xmlns:xlink="http://www.w3.org/1999/xlink" x="0px" y="0px"
	 width="64px" height="64px" viewBox="0 0 64 64" enable-background="new 0 0 64 64" xml:space="preserve">
<g>
	<path d="M40.023,21.425c0-4.452-3.622-8.075-8.075-8.075c-4.452,0-8.075,3.623-8.075,8.075c0,4.453,3.623,8.076,8.075,8.076
		C36.401,29.501,40.023,25.878,40.023,21.425z M26.58,21.425c0-2.96,2.408-5.368,5.368-5.368s5.368,2.408,5.368,5.368
		c0,2.961-2.408,5.369-5.368,5.369S26.58,24.386,26.58,21.425z"/>
	<path d="M51.752,38.479h-5.19c2.865-5.133,5.038-11.015,5.038-17.054c0-10.835-8.815-19.65-19.651-19.65
		c-10.835,0-19.65,8.815-19.65,19.65c0,6.069,2.151,11.94,4.999,17.054h-5.983L1,62.226h62L51.752,38.479z M31.948,4.481
		c9.343,0,16.944,7.601,16.944,16.943c0,14.033-13.327,27.799-16.936,31.268c-3.618-3.438-16.953-17.071-16.953-31.268
		C15.004,12.082,22.605,4.481,31.948,4.481z M13.089,41.186h5.818c5.225,8.249,11.713,13.979,12.166,14.374l0.054,0.047l0.842,0.734
		l0.841-0.744l0.049-0.043c0.451-0.398,6.885-6.152,12.09-14.368h5.091l8.684,18.333H5.127L13.089,41.186z"/>
</g>
<g>
</g>
<g>
</g>
<g>
</g>
<g>
</g>
<g>
</g>
<g>
</g>
</svg>
