<?xml version="1.0" encoding="utf-8"?>
<!-- Generator: Adobe Illustrator 16.0.0, SVG Export Plug-In . SVG Version: 6.00 Build 0)  -->
<!DOCTYPE svg PUBLIC "-//W3C//DTD SVG 1.1//EN" "http://www.w3.org/Graphics/SVG/1.1/DTD/svg11.dtd">
<svg version="1.1" id="Layer_1" xmlns="http://www.w3.org/2000/svg" xmlns:xlink="http://www.w3.org/1999/xlink" x="0px" y="0px"
     width="16px" height="16px" viewBox="0 0 16 16" enable-background="new 0 0 16 16" xml:space="preserve">
<path d="M16,6h-6l2.242-2.243C11.109,2.625,9.602,2,8,2C6.397,2,4.891,2.624,3.757,3.758C2.625,4.891,2,6.397,2,8
    c0,1.604,0.624,3.109,1.757,4.242S6.397,14,8,14c1.602,0,3.109-0.624,4.242-1.758c0.094-0.094,0.188-0.191,0.273-0.291l1.506,1.318
    C12.555,14.943,10.4,16,8,16c-4.418,0-8-3.581-8-8c0-4.418,3.582-8,8-8c2.211,0,4.211,0.896,5.656,2.343L16,0V6z"/>
</svg>
