<?xml version="1.0" encoding="utf-8"?>
<!-- Generator: Adobe Illustrator 16.0.0, SVG Export Plug-In . SVG Version: 6.00 Build 0)  -->
<!DOCTYPE svg PUBLIC "-//W3C//DTD SVG 1.1//EN" "http://www.w3.org/Graphics/SVG/1.1/DTD/svg11.dtd">
<svg version="1.1" id="Layer_1" xmlns="http://www.w3.org/2000/svg" xmlns:xlink="http://www.w3.org/1999/xlink" x="0px" y="0px"
	 width="64px" height="64px" viewBox="0 0 64 64" enable-background="new 0 0 64 64" xml:space="preserve">
<path fill-rule="evenodd" clip-rule="evenodd" d="M31.25,22.165L31.25,22.165c3.943-3.623-5.54-12.877-7.36-10.461
	c-0.662,0.871,0.674,3.013,1.262,3.816c0.621,0.854,1.297,1.741,2.066,2.433c0.008,0.009-2.806-2.104-4.313-1.924
	c-1.765,0.209-0.412,1.827,0.446,2.351c0.959,0.59,2.462,0.359,1.224,0.606c-1.074,0.223-3.178,1.422-0.843,1.516
	c0.443,0.021,3.758-0.367,2.861,1.226c-0.06,0.111-0.137,0.217-0.223,0.329l1.846,0.627C29.271,23.032,30.213,23.113,31.25,22.165
	 M45.308,32.913L45.308,32.913c-0.365,0-0.703,0.262-0.753,0.577c-0.051,0.323,0.207,0.579,0.572,0.579
	c0.369,0,0.706-0.256,0.758-0.579C45.935,33.175,45.676,32.913,45.308,32.913z M12.778,26.686L12.778,26.686
	c-5.395,2.719-7.948,4.149-9.875,9.876c-0.287,0.309-0.546,0.598-0.773,0.88c-1.635,2.049-0.752,3.466,0.923,4.832
	c0.534-1.299,1.081-2.851,1.049-4.205c-0.036-0.427-0.183-0.965-0.417-1.631c1.992-4.106,2.282-5.356,6.535-7.384
	c-0.761,0.815-1.5,1.771-2.204,2.881c-1.787,2.723-2.912,5.601-3.385,8.631c-0.221,1.417-0.377,3.538-0.47,6.377
	c-0.092,2.587,0.347,5.993,1.319,10.215h7.143l0.154-7.675l2.156,7.675h7.22l-2.041-7.09c0.309,0.054,0.669,0.124,1.082,0.213
	c1.273,0.214,3.08,0.354,5.438,0.41l0.072,6.467h7.016l-0.122-6.877l2.229-0.213l0.687,7.09h6.63l0.281-9.294
	c0.045-1.587-0.555-2.804-1.983-3.362c-1.92-0.752-3.104-3.073-3.106-5.354c-0.002-0.631,0.884-2.484,1.593-1.69
	c3.225,3.611,12.582,6.89,16.857,4.943c1.797-0.82,3.156-1.698,4.076-2.646c0.921-0.938,1.6-2.178,2.022-3.681
	c0.474-1.707,0.505-3.196,0.081-4.459c-1.162-3.479-4.489-3.112-7.702-1.648c-1.063,0.482-2.002,0.883-2.212,1.507
	c-0.166,0.512,0.15,1.366,1.454,0.815c1.78-0.756,5.055-1.976,5.795,0.251c0.225,0.666,0.192,1.443-0.104,2.313
	c-0.321,0.977-1.034,1.717-2.135,2.22c-1.105,0.499-2.202,0.606-3.294,0.299c-1.805-0.513-2.787-4.422-3.772-5.951
	c-1.879-2.919-4.348-5.122-7.69-6.778c-2.789-1.386-6.747-2.287-11.01-2.544c-0.172,0.265-0.389,0.504-0.662,0.726
	c-1.497,1.2-2.659,0.841-4.042,0.367l-2.015-0.956c-0.379,0.038-0.754,0.085-1.13,0.132c0.765,1.114,1.097,2.378,0.477,3.607
	c-0.988,1.963-3.601,2.548-5.5,2.578c-1.009,0.014-0.868-0.597-0.75-0.969c0.097-0.307,0.283-0.674-0.386-0.661
	c-1.208,0.034-2.402,1.404-3.711,1.396c-0.621-0.004-1.185-0.265-0.928-1.029c0.144-0.427,0.851-0.957,1.168-1.246
	c-0.283,0.042-0.592,0.06-0.892,0.034c-0.077-0.009-0.167-0.018-0.261-0.034C13.357,26.25,13.065,26.463,12.778,26.686z
	 M44.625,35.401L44.625,35.401c-0.859,0-1.449-0.694-1.316-1.553c0.136-0.859,0.941-1.554,1.802-1.554
	c0.855,0,1.656,1.413,1.521,2.272C46.498,35.424,45.48,35.401,44.625,35.401z M9.035,56.864L9.035,56.864
	c0.061-0.251,0.135-0.457,0.217-0.624c0.175-0.448,0.366-0.666,0.578-0.666c0.384-0.025,0.551,0.401,0.52,1.29H9.035z M27.66,26.553
	L27.66,26.553c1.98-0.999,3.882-1.259,5.687-0.798c1.433,0.367,2.453,1.409,3.07,2.664c0.099,0.205,0.065,0.905-0.22,0.486
	c-1.642-2.556-3.936-2.45-5.705-2.211c-2.587,0.351-5.116,2.749-5.89,5.848c-0.583,2.34-0.025,5.071,1.442,7.611
	c0.439,1.097,0.874,2.193,1.315,3.29c0.521,1.169,1.234,1.87,2.142,2.105c0.211,0.056,0.43,0.084,0.66,0.093
	c1.748,0.106,3.824-1.464,6.243-4.707c0.224-0.299,0.352-0.175,0.186,0.119c-1.802,3.171-4.813,5.344-6.67,5.145
	c-0.22-0.035-0.422-0.074-0.611-0.124c-1.011-0.262-1.806-0.983-2.395-2.16c-0.493-1.137-0.979-2.289-1.46-3.445
	c-0.597-1.045-1.203-2.086-1.8-3.138C21.972,34.437,24.208,28.282,27.66,26.553z M10.789,56.864L10.789,56.864
	c0.194-0.414,0.482-0.845,0.836-1.29c0.321,0,0.484,0.429,0.48,1.29H10.789z M18.374,56.864L18.374,56.864
	c0.067-0.251,0.136-0.457,0.213-0.624c0.176-0.448,0.371-0.666,0.582-0.666c0.377-0.025,0.55,0.401,0.517,1.29H18.374z
	 M20.126,56.864L20.126,56.864c0.197-0.414,0.478-0.845,0.844-1.29c0.313,0,0.478,0.429,0.476,1.29H20.126z M30.221,56.864
	L30.221,56.864c0.067-0.251,0.131-0.457,0.217-0.624c0.175-0.448,0.383-0.666,0.618-0.666c0.322,0,0.479,0.429,0.476,1.29H30.221z
	 M32.014,56.864L32.014,56.864c0.071-0.251,0.144-0.457,0.216-0.624c0.179-0.448,0.371-0.666,0.586-0.666
	c0.375-0.025,0.547,0.401,0.521,1.29H32.014z M39.834,56.864L39.834,56.864c0.2-0.414,0.483-0.845,0.839-1.29
	c0.317,0,0.488,0.429,0.48,1.29H39.834z M41.631,56.864L41.631,56.864c0.067-0.251,0.144-0.457,0.216-0.624
	c0.184-0.448,0.366-0.666,0.587-0.666c0.375-0.025,0.544,0.401,0.517,1.29H41.631z M15.986,25.618L15.986,25.618l0.001-0.008
	l-0.02-0.042l-0.003-0.004c-0.048-0.082-0.021-0.021,0.007,0.046C15.978,25.618,15.986,25.618,15.986,25.618z M24.378,23.229
	C23,19.204,12.5,16.766,11.796,19.25c-0.306,1.102,2.068,2.501,3.055,2.992c1.043,0.521,2.163,1.046,3.292,1.354
	c0.012,0-3.932-0.726-5.455,0.102c-1.782,0.965,0.383,1.87,1.533,1.985c1.281,0.128,2.776-0.748,1.573,0.03
	c-1.042,0.674-2.749,2.706-0.217,1.771c0.478-0.175,4.082-1.934,3.839-0.064c-0.018,0.128-0.05,0.265-0.09,0.401
	C21.665,27.757,25.675,27.019,24.378,23.229z"/>
<g>
</g>
<g>
</g>
<g>
</g>
<g>
</g>
<g>
</g>
<g>
</g>
</svg>
