<svg xmlns="http://www.w3.org/2000/svg">
    <symbol id="android" viewBox="0 0 64 64">
       <g> <path d="M8.95,20.95c-2.162,0-3.917,1.722-3.917,3.845l0,0v6.539v3.076v6.538l0,0c0,2.124,1.755,3.845,3.917,3.845
		c2.163,0,3.917-1.721,3.917-3.845h0.001V34.41v-3.076v-6.539h-0.001C12.867,22.672,11.113,20.95,8.95,20.95z"/> <path d="M58.967,24.795c0-2.123-1.756-3.845-3.918-3.845s-3.918,1.722-3.918,3.845l0,0v6.539v3.076v6.538l0,0
		c0,2.124,1.756,3.845,3.918,3.845s3.918-1.721,3.918-3.845l0,0V34.41v-3.076V24.795L58.967,24.795z"/> <path d="M14.467,21.623h-0.196v25.351c0,2.116,1.764,3.847,3.919,3.847h3.302v2.296v6.539l0,0c0.002,2.123,1.755,3.845,3.917,3.845
		c2.164,0,3.917-1.722,3.917-3.845l0,0v-6.539V50.82h5.346v2.296v6.539c0.002,2.124,1.756,3.845,3.918,3.845
		s3.916-1.722,3.918-3.845v-6.539V50.82h3.301c2.156,0,3.918-1.73,3.918-3.847V21.623h-0.063H14.467z"/> <path d="M49.693,20.276v-1.854c-0.049-0.526-0.131-1.045-0.24-1.555c-0.971-4.509-4.174-8.329-8.572-10.548l2.705-4.897
		c0.166-0.304,0.053-0.684-0.258-0.848c-0.307-0.164-0.693-0.051-0.863,0.252l-2.738,4.96C37.4,4.806,34.79,4.255,32.031,4.255
		c-2.779,0-5.406,0.559-7.748,1.556l-2.75-4.983c-0.167-0.304-0.555-0.416-0.863-0.252c-0.308,0.164-0.425,0.543-0.257,0.847
		l2.719,4.924c-4.19,2.132-7.292,5.72-8.39,9.973c-0.287,1.104-0.437,2.252-0.437,3.431c0,0.176,0.003,0.352,0.012,0.527H49.693
		L49.693,20.276z M40.063,10.854c0.92,0,1.666,0.732,1.666,1.634c0,0.903-0.746,1.635-1.666,1.635s-1.664-0.731-1.664-1.635
		C38.398,11.586,39.143,10.854,40.063,10.854z M23.936,10.854c0.92,0,1.665,0.732,1.665,1.634c0,0.903-0.745,1.635-1.665,1.635
		c-0.919,0-1.665-0.731-1.665-1.635C22.271,11.586,23.016,10.854,23.936,10.854z"/> </g> 
    </symbol>
    <symbol id="apple" viewBox="0 0 64 64">
       <g> <path clip-rule="evenodd" d="M56.8,21.803c-3.192-3.983-7.67-6.288-11.895-6.288
		c-5.593,0-7.956,2.661-11.836,2.661c-3.998,0-7.038-2.657-11.874-2.657c-4.749,0-9.802,2.889-13.002,7.827
		c-4.507,6.948-3.743,20.017,3.563,31.152c2.613,3.981,6.103,8.46,10.667,8.502c4.055,0.038,5.203-2.591,10.704-2.621
		c5.505-0.031,6.544,2.649,10.6,2.613c4.563-0.043,8.246-5.001,10.857-8.985c1.873-2.853,2.567-4.294,4.021-7.52
		C48.042,42.491,46.344,27.54,56.8,21.803z"/> <path clip-rule="evenodd" d="M40.662,11.067C42.692,8.456,44.236,4.769,43.677,1
		c-3.317,0.229-7.199,2.344-9.467,5.099c-2.057,2.503-3.754,6.213-3.093,9.819C34.739,16.03,38.486,13.863,40.662,11.067z"/> </g> 
    </symbol>
    <symbol id="arrow-left" viewBox="0 0 64 64">
       <polygon fill-rule="evenodd" clip-rule="evenodd" points="44.412,63 50.082,57.398 24.874,31.879 50.396,6.671 
	44.793,1 13.604,31.809 "/> 
    </symbol>
    <symbol id="arrow-right" viewBox="0 0 64 64">
       <polygon fill-rule="evenodd" clip-rule="evenodd" points="19.317,1 13.681,6.636 39.047,31.999 13.681,57.365 
	19.319,63 50.319,31.999 "/> 
    </symbol>
    <symbol id="close" viewBox="0 0 64 64">
       <polygon fill-rule="evenodd" clip-rule="evenodd" points="62.997,57.362 37.637,31.999 63,6.639 57.362,1.003 
	32.001,26.363 6.636,1 1,6.636 26.366,31.999 1,57.365 6.638,63 32.001,37.638 57.362,62.998 "/> 
    </symbol>
    <symbol id="email" viewBox="0 0 64 64">
       <path fill-rule="evenodd" clip-rule="evenodd" d="M2,54.051c0-14.72,0-29.362,0-44.102c19.987,0,39.934,0,60,0
	c0,14.687,0,29.355,0,44.102C41.988,54.051,22.041,54.051,2,54.051z M6.551,12.622c8.608,8.462,17.012,16.723,25.46,25.027
	c8.479-8.33,16.882-16.584,25.478-25.027C40.387,12.622,23.626,12.622,6.551,12.622z M57.884,51.382
	c-5.606-6.563-11.001-12.879-16.647-19.489c-3.063,3.291-6.008,6.454-8.99,9.658c-3.396-3.323-6.501-6.362-9.642-9.436
	c-5.53,6.481-10.914,12.79-16.439,19.267C23.518,51.382,40.543,51.382,57.884,51.382z M4.947,14.449
	c-0.128,0.093-0.257,0.187-0.385,0.28c0,11.363,0,22.726,0,34.432c5.5-6.428,10.804-12.625,15.783-18.442
	C15.171,25.252,10.06,19.851,4.947,14.449z M43.786,30.827c4.875,5.694,10.168,11.876,15.656,18.288c0-11.735,0-23.061,0-34.843
	C54.07,19.951,48.964,25.351,43.786,30.827z"/>       
    </symbol>
    <symbol id="facebook" viewBox="0 0 64 64">
       <path fill-rule="evenodd" clip-rule="evenodd" d="M17.989,27.306c1.271,2.539,1.29,5.04,0.211,7.715
	c9.965,4.994,19.934,9.988,29.939,15.003c1.182-1.735,2.658-2.923,4.651-3.459c3.75-1.01,7.713,1.212,8.893,5.044
	c1.146,3.719-0.92,7.848-4.533,9.068c-5.108,1.725-10.053-1.877-9.912-7.265c0.02-0.742-0.263-1.03-0.852-1.324
	c-9.593-4.785-19.182-9.578-28.75-14.409c-0.76-0.384-1.211-0.285-1.833,0.229c-2.915,2.414-6.918,2.582-10.031,0.486
	c-3.1-2.087-4.499-6.029-3.402-9.586c1.728-5.601,8.698-7.811,13.273-4.175c0.621,0.493,1.03,0.542,1.717,0.123
	c5.457-3.329,10.933-6.626,16.429-9.891c0.729-0.433,0.914-0.785,0.635-1.629c-1.793-5.405,2.442-10.751,8.13-10.325
	c3.59,0.269,6.768,3.232,7.169,6.685c0.456,3.937-1.696,7.475-5.267,8.659c-2.822,0.935-5.373,0.401-7.651-1.458
	c-0.439-0.358-0.747-0.453-1.274-0.133c-5.673,3.445-11.363,6.86-17.047,10.286C18.338,27.039,18.206,27.149,17.989,27.306z
	 M10.48,37.16c3.248,0.001,5.903-2.635,5.888-5.843c-0.016-3.183-2.757-5.89-5.918-5.845c-3.179,0.044-5.795,2.667-5.811,5.825
	C4.623,34.536,7.236,37.159,10.48,37.16z M41.902,16.044c2.885-0.006,5.294-2.412,5.281-5.274c-0.011-2.853-2.458-5.293-5.296-5.286
	c-2.87,0.008-5.265,2.421-5.263,5.301C36.628,13.676,39.012,16.051,41.902,16.044z M59.386,53.788
	c0.018-2.641-2.115-4.828-4.745-4.867c-2.57-0.037-4.801,2.194-4.801,4.806c0,2.643,2.166,4.81,4.796,4.799
	C57.213,58.515,59.367,56.366,59.386,53.788z"/>       
    </symbol>
    <symbol id="location" viewBox="0 0 64 64">
       <g> <path d="M40.023,21.425c0-4.452-3.622-8.075-8.075-8.075c-4.452,0-8.075,3.623-8.075,8.075c0,4.453,3.623,8.076,8.075,8.076
		C36.401,29.501,40.023,25.878,40.023,21.425z M26.58,21.425c0-2.96,2.408-5.368,5.368-5.368s5.368,2.408,5.368,5.368
		c0,2.961-2.408,5.369-5.368,5.369S26.58,24.386,26.58,21.425z"/> <path d="M51.752,38.479h-5.19c2.865-5.133,5.038-11.015,5.038-17.054c0-10.835-8.815-19.65-19.651-19.65
		c-10.835,0-19.65,8.815-19.65,19.65c0,6.069,2.151,11.94,4.999,17.054h-5.983L1,62.226h62L51.752,38.479z M31.948,4.481
		c9.343,0,16.944,7.601,16.944,16.943c0,14.033-13.327,27.799-16.936,31.268c-3.618-3.438-16.953-17.071-16.953-31.268
		C15.004,12.082,22.605,4.481,31.948,4.481z M13.089,41.186h5.818c5.225,8.249,11.713,13.979,12.166,14.374l0.054,0.047l0.842,0.734
		l0.841-0.744l0.049-0.043c0.451-0.398,6.885-6.152,12.09-14.368h5.091l8.684,18.333H5.127L13.089,41.186z"/> </g>       
    </symbol>
    <symbol id="maps-and-flags" viewBox="0 0 512 512">
       <polygon style="fill:#FEE191;" points="512,128.819 512,512 384,466.489 349.867,274.898 384,83.308 "/> <polygon style="fill:#FFD24D;" points="384,83.308 384,466.489 256,512 233.244,320.41 256,128.819 "/> <polygon style="fill:#FEE191;" points="256,128.819 256,512 128,466.489 93.867,274.898 128,83.308 "/> <polygon style="fill:#FFD24D;" points="128,83.308 128,466.489 0,512 0,128.819 "/> <path style="fill:#F14742;" d="M435.61,115.61c0,92.573-104.507,178.309-104.507,178.309c-6.106,5.01-16.1,5.01-22.206,0
	c0,0-104.507-85.736-104.507-178.309C204.389,51.761,256.15,0,320,0S435.61,51.761,435.61,115.61z"/> <path style="fill:#FFFFFF;" d="M320,173.774c-32.072,0-58.164-26.093-58.164-58.164S287.928,57.446,320,57.446
	s58.164,26.093,58.164,58.164S352.072,173.774,320,173.774z"/>                
    </symbol>
    <symbol id="phone-receiver" viewBox="0 0 512 512">
       <path style="fill:#FFD24D;" d="M512,129.029C512,57.77,439.257,0,349.533,0c-89.731,0-162.467,57.77-162.467,129.029
	c0,63.663,58.056,116.554,134.419,127.108h-0.231c4.007,24.614-3.386,50.749-22.191,69.733c40.349,0,73.657-30.389,78.716-69.729
	h-0.231C453.921,245.596,512,192.701,512,129.029z"/> <g> <circle style="fill:#F14742;" cx="292.261" cy="129.024" r="11.378"/> <circle style="fill:#F14742;" cx="406.801" cy="129.024" r="11.378"/> <circle style="fill:#F14742;" cx="349.536" cy="129.024" r="11.378"/> </g> <path style="fill:#1B4145;" d="M349.998,411.754c-24.59-24.589-50.926-45.288-50.926-45.288L260.7,404.838L107.162,251.3
	l38.372-38.373c0,0-20.698-26.336-45.288-50.926c-24.59-24.589-50.926-45.288-50.926-45.288S3.343,159.01,0.25,192.558
	c-4.137,44.904,43.395,126.545,118.021,201.172c74.626,74.625,156.267,122.157,201.171,118.021
	c33.547-3.094,75.845-49.071,75.845-49.071S374.588,436.342,349.998,411.754z"/>                
    </symbol>
    <symbol id="phone" viewBox="0 0 64 64">
       <g> <path d="M9.898,63h34.817V10.291H9.898V63z M12.165,60.734v-9.59h30.284v9.59H12.165z M42.449,12.558v36.319H12.165V12.558H42.449z
		"/> <rect x="21.425" y="54.846" width="11.766" height="2.266"/> <rect x="48.219" y="13.203" width="5.883" height="2.267"/> <rect x="39.53" y="1" width="2.266" height="5.883"/> <rect x="48.549" y="2.465" transform="matrix(0.7071 0.7071 -0.7071 0.7071 18.3747 -33.547)" width="2.266" height="5.883"/> </g>       
    </symbol>
    <symbol id="refresh" viewBox="0 0 16 16">
       <path d="M16,6h-6l2.242-2.243C11.109,2.625,9.602,2,8,2C6.397,2,4.891,2.624,3.757,3.758C2.625,4.891,2,6.397,2,8
    c0,1.604,0.624,3.109,1.757,4.242S6.397,14,8,14c1.602,0,3.109-0.624,4.242-1.758c0.094-0.094,0.188-0.191,0.273-0.291l1.506,1.318
    C12.555,14.943,10.4,16,8,16c-4.418,0-8-3.581-8-8c0-4.418,3.582-8,8-8c2.211,0,4.211,0.896,5.656,2.343L16,0V6z"/> 
    </symbol>
    <symbol id="scroll-down" viewBox="0 0 64 64">
       <polygon fill-rule="evenodd" clip-rule="evenodd" points="33.766,47.91 33.766,1.252 30.111,1.252 30.111,47.91 25.073,47.91 
	31.938,63.252 38.807,47.91 "/>       
    </symbol>
    <symbol id="scroll-up" viewBox="0 0 64 64">
       <polygon points="30.114,16.594 30.114,63.252 33.77,63.252 33.77,16.594 38.807,16.594 31.942,1.252 25.073,16.594 "/> 
    </symbol>
    <symbol id="wedes" viewBox="0 0 64 64">
       <path fill-rule="evenodd" clip-rule="evenodd" d="M31.25,22.165L31.25,22.165c3.943-3.623-5.54-12.877-7.36-10.461
	c-0.662,0.871,0.674,3.013,1.262,3.816c0.621,0.854,1.297,1.741,2.066,2.433c0.008,0.009-2.806-2.104-4.313-1.924
	c-1.765,0.209-0.412,1.827,0.446,2.351c0.959,0.59,2.462,0.359,1.224,0.606c-1.074,0.223-3.178,1.422-0.843,1.516
	c0.443,0.021,3.758-0.367,2.861,1.226c-0.06,0.111-0.137,0.217-0.223,0.329l1.846,0.627C29.271,23.032,30.213,23.113,31.25,22.165
	 M45.308,32.913L45.308,32.913c-0.365,0-0.703,0.262-0.753,0.577c-0.051,0.323,0.207,0.579,0.572,0.579
	c0.369,0,0.706-0.256,0.758-0.579C45.935,33.175,45.676,32.913,45.308,32.913z M12.778,26.686L12.778,26.686
	c-5.395,2.719-7.948,4.149-9.875,9.876c-0.287,0.309-0.546,0.598-0.773,0.88c-1.635,2.049-0.752,3.466,0.923,4.832
	c0.534-1.299,1.081-2.851,1.049-4.205c-0.036-0.427-0.183-0.965-0.417-1.631c1.992-4.106,2.282-5.356,6.535-7.384
	c-0.761,0.815-1.5,1.771-2.204,2.881c-1.787,2.723-2.912,5.601-3.385,8.631c-0.221,1.417-0.377,3.538-0.47,6.377
	c-0.092,2.587,0.347,5.993,1.319,10.215h7.143l0.154-7.675l2.156,7.675h7.22l-2.041-7.09c0.309,0.054,0.669,0.124,1.082,0.213
	c1.273,0.214,3.08,0.354,5.438,0.41l0.072,6.467h7.016l-0.122-6.877l2.229-0.213l0.687,7.09h6.63l0.281-9.294
	c0.045-1.587-0.555-2.804-1.983-3.362c-1.92-0.752-3.104-3.073-3.106-5.354c-0.002-0.631,0.884-2.484,1.593-1.69
	c3.225,3.611,12.582,6.89,16.857,4.943c1.797-0.82,3.156-1.698,4.076-2.646c0.921-0.938,1.6-2.178,2.022-3.681
	c0.474-1.707,0.505-3.196,0.081-4.459c-1.162-3.479-4.489-3.112-7.702-1.648c-1.063,0.482-2.002,0.883-2.212,1.507
	c-0.166,0.512,0.15,1.366,1.454,0.815c1.78-0.756,5.055-1.976,5.795,0.251c0.225,0.666,0.192,1.443-0.104,2.313
	c-0.321,0.977-1.034,1.717-2.135,2.22c-1.105,0.499-2.202,0.606-3.294,0.299c-1.805-0.513-2.787-4.422-3.772-5.951
	c-1.879-2.919-4.348-5.122-7.69-6.778c-2.789-1.386-6.747-2.287-11.01-2.544c-0.172,0.265-0.389,0.504-0.662,0.726
	c-1.497,1.2-2.659,0.841-4.042,0.367l-2.015-0.956c-0.379,0.038-0.754,0.085-1.13,0.132c0.765,1.114,1.097,2.378,0.477,3.607
	c-0.988,1.963-3.601,2.548-5.5,2.578c-1.009,0.014-0.868-0.597-0.75-0.969c0.097-0.307,0.283-0.674-0.386-0.661
	c-1.208,0.034-2.402,1.404-3.711,1.396c-0.621-0.004-1.185-0.265-0.928-1.029c0.144-0.427,0.851-0.957,1.168-1.246
	c-0.283,0.042-0.592,0.06-0.892,0.034c-0.077-0.009-0.167-0.018-0.261-0.034C13.357,26.25,13.065,26.463,12.778,26.686z
	 M44.625,35.401L44.625,35.401c-0.859,0-1.449-0.694-1.316-1.553c0.136-0.859,0.941-1.554,1.802-1.554
	c0.855,0,1.656,1.413,1.521,2.272C46.498,35.424,45.48,35.401,44.625,35.401z M9.035,56.864L9.035,56.864
	c0.061-0.251,0.135-0.457,0.217-0.624c0.175-0.448,0.366-0.666,0.578-0.666c0.384-0.025,0.551,0.401,0.52,1.29H9.035z M27.66,26.553
	L27.66,26.553c1.98-0.999,3.882-1.259,5.687-0.798c1.433,0.367,2.453,1.409,3.07,2.664c0.099,0.205,0.065,0.905-0.22,0.486
	c-1.642-2.556-3.936-2.45-5.705-2.211c-2.587,0.351-5.116,2.749-5.89,5.848c-0.583,2.34-0.025,5.071,1.442,7.611
	c0.439,1.097,0.874,2.193,1.315,3.29c0.521,1.169,1.234,1.87,2.142,2.105c0.211,0.056,0.43,0.084,0.66,0.093
	c1.748,0.106,3.824-1.464,6.243-4.707c0.224-0.299,0.352-0.175,0.186,0.119c-1.802,3.171-4.813,5.344-6.67,5.145
	c-0.22-0.035-0.422-0.074-0.611-0.124c-1.011-0.262-1.806-0.983-2.395-2.16c-0.493-1.137-0.979-2.289-1.46-3.445
	c-0.597-1.045-1.203-2.086-1.8-3.138C21.972,34.437,24.208,28.282,27.66,26.553z M10.789,56.864L10.789,56.864
	c0.194-0.414,0.482-0.845,0.836-1.29c0.321,0,0.484,0.429,0.48,1.29H10.789z M18.374,56.864L18.374,56.864
	c0.067-0.251,0.136-0.457,0.213-0.624c0.176-0.448,0.371-0.666,0.582-0.666c0.377-0.025,0.55,0.401,0.517,1.29H18.374z
	 M20.126,56.864L20.126,56.864c0.197-0.414,0.478-0.845,0.844-1.29c0.313,0,0.478,0.429,0.476,1.29H20.126z M30.221,56.864
	L30.221,56.864c0.067-0.251,0.131-0.457,0.217-0.624c0.175-0.448,0.383-0.666,0.618-0.666c0.322,0,0.479,0.429,0.476,1.29H30.221z
	 M32.014,56.864L32.014,56.864c0.071-0.251,0.144-0.457,0.216-0.624c0.179-0.448,0.371-0.666,0.586-0.666
	c0.375-0.025,0.547,0.401,0.521,1.29H32.014z M39.834,56.864L39.834,56.864c0.2-0.414,0.483-0.845,0.839-1.29
	c0.317,0,0.488,0.429,0.48,1.29H39.834z M41.631,56.864L41.631,56.864c0.067-0.251,0.144-0.457,0.216-0.624
	c0.184-0.448,0.366-0.666,0.587-0.666c0.375-0.025,0.544,0.401,0.517,1.29H41.631z M15.986,25.618L15.986,25.618l0.001-0.008
	l-0.02-0.042l-0.003-0.004c-0.048-0.082-0.021-0.021,0.007,0.046C15.978,25.618,15.986,25.618,15.986,25.618z M24.378,23.229
	C23,19.204,12.5,16.766,11.796,19.25c-0.306,1.102,2.068,2.501,3.055,2.992c1.043,0.521,2.163,1.046,3.292,1.354
	c0.012,0-3.932-0.726-5.455,0.102c-1.782,0.965,0.383,1.87,1.533,1.985c1.281,0.128,2.776-0.748,1.573,0.03
	c-1.042,0.674-2.749,2.706-0.217,1.771c0.478-0.175,4.082-1.934,3.839-0.064c-0.018,0.128-0.05,0.265-0.09,0.401
	C21.665,27.757,25.675,27.019,24.378,23.229z"/>       
    </symbol></svg>